<?xml version="1.0" standalone="no"?>
<!DOCTYPE svg PUBLIC "-//W3C//DTD SVG 20010904//EN"
 "http://www.w3.org/TR/2001/REC-SVG-20010904/DTD/svg10.dtd">
<svg version="1.0" xmlns="http://www.w3.org/2000/svg"
 width="512.000000pt" height="512.000000pt" viewBox="0 0 512.000000 512.000000"
 preserveAspectRatio="xMidYMid meet">
<metadata>
Created by potrace 1.14, written by Peter Selinger 2001-2017
</metadata>
<g transform="translate(0.000000,512.000000) scale(0.100000,-0.100000)"
fill="#000000" stroke="none">
<path d="M534 3599 c-2 -3 117 -367 264 -808 l267 -801 232 0 231 0 23 68 c13
37 24 69 24 72 2 10 117 350 118 350 1 0 2 -216 2 -480 0 -264 2 -480 5 -481
21 -4 364 -3 371 1 5 4 10 131 11 285 l3 278 175 2 c255 3 379 40 490 145 l49
46 232 -1 232 0 1 -145 1 -145 190 0 190 0 2 130 c0 72 1 137 2 146 1 13 16
15 91 15 l90 -1 2 192 c1 235 0 210 15 257 30 89 89 131 181 128 110 -3 173
-105 150 -248 -8 -50 -47 -151 -70 -179 -4 -5 -28 -37 -53 -69 -80 -105 -185
-208 -385 -376 -150 -126 -159 -134 -185 -157 -19 -17 -21 -29 -20 -158 l0
-140 563 -1 c309 0 562 2 563 5 3 17 4 288 2 296 -2 7 -101 11 -289 10 -157 0
-290 3 -295 6 -5 3 19 28 53 55 100 78 318 302 374 384 95 140 134 270 129
427 -4 113 -25 184 -80 267 -85 129 -221 194 -420 201 -154 6 -301 -31 -389
-99 l-31 -23 1 273 c1 190 -2 274 -10 277 -9 2 -399 1 -417 -2 -3 -1 -23 -27
-45 -58 -41 -61 -295 -424 -371 -530 l-44 -63 -57 39 c-136 90 -205 104 -539
105 -145 1 -263 3 -263 5 0 3 36 112 80 244 45 132 79 245 77 251 -3 7 -64 11
-191 10 -102 0 -188 -3 -190 -5 -4 -4 -183 -574 -196 -624 -4 -16 -46 -153
-94 -303 -47 -151 -86 -277 -87 -280 0 -4 -4 4 -9 18 -16 49 -193 620 -277
895 -47 154 -89 284 -94 290 -10 10 -378 14 -385 4z m2756 -709 l0 -280 -189
0 -189 0 150 228 c83 125 166 251 185 280 19 28 37 52 39 52 2 0 4 -126 4
-280z m-895 -124 c57 -24 83 -53 100 -109 24 -82 -1 -185 -54 -225 -44 -32
-97 -42 -233 -42 l-128 0 0 198 0 198 138 -2 c102 -1 147 -6 177 -18z"/>
</g>
</svg>
