<?xml version="1.0" standalone="no"?>
<!DOCTYPE svg PUBLIC "-//W3C//DTD SVG 20010904//EN"
 "http://www.w3.org/TR/2001/REC-SVG-20010904/DTD/svg10.dtd">
<svg version="1.0" xmlns="http://www.w3.org/2000/svg"
 width="700.000000pt" height="700.000000pt" viewBox="0 0 700.000000 700.000000"
 preserveAspectRatio="xMidYMid meet">
<metadata>
Created by potrace 1.14, written by Peter Selinger 2001-2017
</metadata>
<g transform="translate(0.000000,700.000000) scale(0.100000,-0.100000)"
fill="#000000" stroke="none">
<path d="M290 4788 c0 -7 76 -221 90 -253 5 -11 27 -72 50 -135 23 -63 55
-149 70 -190 16 -41 82 -217 146 -390 63 -173 161 -436 216 -585 55 -148 131
-355 170 -460 38 -104 80 -217 93 -250 12 -33 40 -107 60 -165 21 -58 39 -107
41 -109 7 -8 775 -4 783 5 5 5 58 140 116 299 59 160 166 448 237 640 72 193
154 418 184 500 30 83 59 159 64 170 5 11 40 106 79 210 38 105 113 306 166
448 52 142 93 262 91 266 -2 3 -150 6 -328 6 l-323 -1 -51 -139 c-52 -146
-147 -412 -241 -675 -62 -172 -105 -293 -162 -450 -115 -315 -211 -587 -211
-597 0 -7 -4 -13 -10 -13 -5 0 -10 5 -10 12 0 11 -51 159 -70 203 -5 11 -18
49 -30 85 -11 36 -25 74 -30 85 -5 11 -63 173 -130 360 -116 327 -171 479
-332 925 l-74 204 -327 1 c-180 0 -327 -3 -327 -7z"/>
<path d="M3294 4791 c-7 -8 -4 -2541 4 -2542 11 -1 573 -1 614 0 l37 1 0 436
c0 240 1 437 3 439 2 2 145 5 318 8 328 5 344 7 476 37 186 43 319 114 434
230 130 131 197 299 205 515 9 223 -35 391 -139 535 -136 188 -349 295 -671
336 -55 7 -1274 12 -1281 5z m1141 -483 c110 -24 201 -92 245 -183 21 -43 24
-65 24 -160 1 -101 -1 -115 -27 -166 -49 -100 -144 -166 -267 -184 -53 -8
-448 -11 -455 -3 -5 5 -7 313 -5 641 l0 67 223 -2 c122 -1 240 -5 262 -10z"/>
<path d="M5889 2902 c-1 -4 -2 -152 -2 -330 -2 -316 -2 -322 18 -323 25 -1
542 -1 573 0 l22 1 0 329 0 330 -305 0 c-168 0 -305 -3 -306 -7z"/>
</g>
</svg>
