<?xml version="1.0" standalone="no"?>
<!DOCTYPE svg PUBLIC "-//W3C//DTD SVG 20010904//EN"
 "http://www.w3.org/TR/2001/REC-SVG-20010904/DTD/svg10.dtd">
<svg version="1.0" xmlns="http://www.w3.org/2000/svg"
 width="512.000000pt" height="512.000000pt" viewBox="0 0 512.000000 512.000000"
 preserveAspectRatio="xMidYMid meet">
<metadata>
Created by potrace 1.14, written by Peter Selinger 2001-2017
</metadata>
<g transform="translate(0.000000,512.000000) scale(0.100000,-0.100000)"
fill="#000000" stroke="none">
<path d="M469 3499 c-5 -3 36 -140 92 -305 56 -164 195 -577 309 -916 115
-340 211 -621 214 -626 3 -5 139 -8 302 -8 l297 1 95 280 c441 1309 530 1575
524 1576 -55 5 -486 -1 -492 -7 -7 -8 -70 -197 -76 -229 -1 -5 -18 -62 -37
-125 -33 -104 -107 -348 -188 -615 -25 -82 -54 -177 -115 -374 -3 -9 -8 -11
-14 -5 -9 9 -56 154 -66 203 -3 14 -8 29 -11 34 -3 5 -9 23 -13 41 -7 26 -50
170 -129 421 -11 33 -31 101 -46 150 -14 50 -39 131 -55 180 -15 50 -43 140
-61 200 -18 61 -36 114 -40 118 -8 10 -475 15 -490 6z"/>
<path d="M2520 3502 c-7 -3 -10 -322 -10 -931 l0 -928 225 0 225 1 0 288 0
288 168 1 c92 0 192 2 222 4 62 5 200 33 215 44 6 4 26 14 45 21 19 8 60 30
90 51 174 117 264 313 255 554 -13 331 -237 566 -574 601 -58 6 -844 11 -861
6z m818 -391 c166 -74 206 -318 74 -454 -61 -62 -121 -79 -299 -81 l-153 -2 0
284 0 284 163 -4 c143 -3 168 -7 215 -27z"/>
<path d="M4375 2080 c-151 -35 -227 -199 -157 -337 39 -74 102 -114 191 -120
77 -5 119 9 173 59 98 91 105 232 15 326 -59 62 -146 90 -222 72z"/>
</g>
</svg>
