<?xml version="1.0" encoding="UTF-8" standalone="no"?>
<!-- Created with Inkscape (http://www.inkscape.org/) -->

<svg
   width="70mm"
   height="70mm"
   viewBox="0 0 70 70"
   version="1.1"
   id="svg5"
   xml:space="preserve"
   sodipodi:docname="logo.svg"
   inkscape:export-filename="logo_background.png"
   inkscape:export-xdpi="185.78287"
   inkscape:export-ydpi="185.78287"
   inkscape:version="1.2.2 (b0a8486541, 2022-12-01)"
   xmlns:inkscape="http://www.inkscape.org/namespaces/inkscape"
   xmlns:sodipodi="http://sodipodi.sourceforge.net/DTD/sodipodi-0.dtd"
   xmlns="http://www.w3.org/2000/svg"
   xmlns:svg="http://www.w3.org/2000/svg"><sodipodi:namedview
     id="namedview7"
     pagecolor="#ffffff"
     bordercolor="#000000"
     borderopacity="0.25"
     inkscape:showpageshadow="2"
     inkscape:pageopacity="0.0"
     inkscape:pagecheckerboard="0"
     inkscape:deskcolor="#d1d1d1"
     inkscape:document-units="mm"
     showgrid="false"
     inkscape:zoom="1.2938725"
     inkscape:cx="110.52094"
     inkscape:cy="126.75129"
     inkscape:window-width="2560"
     inkscape:window-height="1367"
     inkscape:window-x="0"
     inkscape:window-y="0"
     inkscape:window-maximized="1"
     inkscape:current-layer="layer1" /><defs
     id="defs2" /><g
     inkscape:label="Ebene 1"
     inkscape:groupmode="layer"
     id="layer1"
     transform="translate(-66.459084,-30.431356)"><rect
       style="display:inline;fill:#000000;fill-opacity:1;stroke-width:0.305124"
       id="rect1085"
       width="70"
       height="70"
       x="66.459084"
       y="30.431356"
       ry="9.398737" /><g
       aria-label="VP."
       id="text186"
       style="font-weight:800;font-size:34.9495px;line-height:1;font-family:Inter;-inkscape-font-specification:'Inter Ultra-Bold';text-align:center;text-anchor:middle;stroke-width:1.63826"><path
         d="m 79.584612,52.542485 5.684259,18.616567 h 0.210987 l 5.684259,-18.616567 h 6.875718 L 89.463804,77.960304 H 81.284925 L 72.708894,52.542485 Z"
         style="fill:#eff1f3"
         id="path2817" /><path
         d="M 100.78267,77.960304 V 52.542485 h 10.49974 q 2.85454,0 4.92719,1.116994 2.08505,1.104583 3.21446,3.09035 1.1294,1.973356 1.1294,4.592087 0,2.631141 -1.15422,4.604497 -1.14182,1.960945 -3.26411,3.040706 -2.12229,1.079761 -5.03888,1.079761 h -6.47857 v -4.840307 h 5.33675 q 1.39004,0 2.32087,-0.484031 0.94324,-0.484031 1.42727,-1.352804 0.48403,-0.881184 0.48403,-2.047822 0,-1.179049 -0.48403,-2.035411 -0.48403,-0.868774 -1.42727,-1.340393 -0.94324,-0.47162 -2.32087,-0.47162 h -3.02829 v 20.465812 z"
         style="fill:#eff1f3"
         id="path2819" /><path
         d="m 126.9824,78.320225 q -1.3404,0 -2.29605,-0.94324 -0.94324,-0.943239 -0.93083,-2.283632 -0.0124,-1.315571 0.93083,-2.246399 0.95565,-0.943239 2.29605,-0.943239 1.26592,0 2.23398,0.943239 0.98048,0.930828 0.99289,2.246399 -0.0124,0.893595 -0.47162,1.625847 -0.4468,0.732251 -1.17905,1.166638 -0.71984,0.434387 -1.5762,0.434387 z"
         style="fill:#0071f5"
         id="path2821" /></g></g></svg>
